<?xml version="1.0" encoding="utf-8"?>
<svg version="1.0" width="1226.000000pt" height="284.000000pt" viewBox="0 0 1226.000000 284.000000" preserveAspectRatio="xMidYMid meet" xmlns="http://www.w3.org/2000/svg">
  <g transform="translate(0.000000,284.000000) scale(0.100000,-0.100000)" fill="#000000" stroke="none">
    <path d="M4555 2469 c-78 -11 -153 -39 -295 -108 -112 -55 -117 -56 -201 -56 -84 0 -87 1 -144 40 -122 85 -140 95 -166 95 -38 0 -66 -39 -81 -111 -10 -51 -16 -61 -38 -66 -83 -20 -171 -94 -235 -199 -27 -43 -41 -54 -125 -95 -110 -53 -150 -92 -150 -146 0 -80 65 -150 205 -219 68 -33 82 -37 197 -43 110 -7 131 -11 190 -40 72 -34 135 -95 165 -162 21 -45 30 -48 39 -15 5 22 10 17 40 -42 18 -38 45 -79 59 -92 l26 -24 -7 44 -7 45 66 -62 c67 -65 81 -74 71 -48 -10 25 5 17 56 -28 l48 -42 -45 -63 c-82 -115 -87 -149 -47 -280 36 -120 66 -183 109 -231 32 -35 43 -41 77 -41 68 0 111 43 145 145 13 40 13 39 10 -35 -5 -92 -28 -148 -90 -218 -99 -111 -70 -162 93 -162 72 0 317 26 344 36 26 10 36 37 51 139 17 112 45 175 138 303 65 92 75 111 131 262 l31 85 40 -1 c54 -1 195 -61 195 -82 1 -40 51 -157 94 -216 50 -70 135 -134 217 -163 78 -28 74 -49 -28 -124 -124 -92 -142 -152 -60 -196 28 -15 62 -18 252 -18 191 0 224 2 252 18 74 40 111 115 120 244 l6 71 66 -42 c36 -23 92 -57 124 -75 31 -18 57 -38 57 -46 0 -7 -20 -40 -45 -74 -25 -34 -45 -72 -45 -86 0 -50 79 -75 176 -55 99 21 161 63 196 135 24 47 66 184 77 249 14 76 14 192 1 217 -6 10 -35 34 -64 53 -126 80 -146 188 -86 475 17 85 37 220 44 300 8 93 18 157 28 176 27 52 58 165 58 214 0 94 -45 189 -99 206 -22 7 -77 -14 -121 -45 l-29 -21 -65 50 c-82 62 -220 138 -295 161 -82 26 -236 37 -391 29 -74 -4 -241 -11 -370 -15 -266 -8 -328 -2 -540 51 -220 54 -297 62 -425 44z m-983 -436 c22 -20 23 -51 1 -75 -45 -50 -125 11 -88 68 18 28 60 32 87 7z" style="fill: rgb(255, 255, 255);"/>
    <path d="M1720 1325 l0 -765 100 0 100 0 1 573 c1 364 4 556 10 527 8 -42 159 -1078 159 -1093 0 -4 72 -7 160 -7 l160 0 0 253 c0 140 3 484 7 765 l6 512 -101 0 c-56 0 -103 -3 -103 -7 -1 -5 -5 -260 -8 -568 l-6 -560 -27 190 c-15 105 -44 309 -64 455 -20 146 -44 315 -53 375 l-16 110 -163 3 -162 2 0 -765z" style="fill: rgb(255, 255, 255);"/>
    <path d="M7630 1985 l0 -105 140 0 140 0 0 -660 0 -660 100 0 100 0 0 660 0 660 125 0 125 0 0 105 0 105 -365 0 -365 0 0 -105z" style="fill: rgb(255, 255, 255);"/>
    <path d="M8640 1326 l0 -766 105 0 105 0 0 160 c0 160 0 160 23 160 20 0 28 -17 78 -157 l56 -158 110 -3 111 -3 -42 113 c-24 62 -53 143 -66 180 l-23 67 31 26 c17 14 44 52 59 83 l28 57 0 400 c0 398 0 400 -23 447 -13 26 -41 63 -64 83 -69 63 -92 68 -300 73 l-188 4 0 -766z m360 535 c6 -13 10 -152 10 -385 l0 -365 -22 -15 c-14 -10 -44 -16 -80 -16 l-58 0 0 400 0 400 70 0 c58 0 71 -3 80 -19z" style="fill: rgb(255, 255, 255);"/>
    <path d="M9701 2003 c-6 -49 -57 -389 -112 -757 -54 -367 -99 -672 -99 -677 0 -5 45 -9 99 -9 l99 0 6 38 c6 35 66 482 66 489 0 2 49 3 108 3 l108 0 32 -237 c18 -131 35 -250 38 -265 l6 -28 99 0 c86 0 99 2 99 17 0 20 -236 1389 -256 1486 l-6 27 -137 0 -137 0 -13 -87z m239 -690 c0 -22 -4 -23 -76 -23 l-77 0 6 38 c3 20 20 144 38 275 l34 238 37 -253 c21 -139 38 -263 38 -275z" style="fill: rgb(255, 255, 255);"/>
    <path d="M10789 2079 c-65 -10 -120 -41 -167 -94 -73 -83 -72 -74 -72 -660 0 -590 -1 -578 76 -664 118 -132 335 -118 436 27 42 62 58 123 58 227 l0 75 -105 0 -105 0 0 -90 0 -90 -32 -20 c-40 -25 -74 -19 -105 16 l-23 25 0 490 c0 354 3 496 12 512 26 50 77 61 122 26 23 -18 26 -27 26 -85 l0 -64 106 0 107 0 -5 78 c-7 90 -25 139 -73 198 -57 69 -161 107 -256 93z" style="fill: rgb(255, 255, 255);"/>
    <path d="M11410 1325 l0 -765 100 0 100 0 0 403 c1 334 3 405 15 421 11 15 16 16 19 5 3 -8 53 -194 112 -414 58 -220 107 -401 109 -403 1 -1 47 -1 102 0 l100 3 -139 520 c-76 286 -139 529 -140 540 -1 11 44 118 99 238 l101 217 -123 0 -123 0 -66 -162 -65 -163 -1 163 0 162 -100 0 -100 0 0 -765z" style="fill: rgb(255, 255, 255);"/>
    <path d="M440 1325 l0 -756 98 3 97 3 3 393 2 392 145 0 c168 0 158 -8 153 120 l-3 75 -147 3 -148 3 0 159 0 160 145 0 145 0 0 100 0 100 -245 0 -245 0 0 -755z" style="fill: rgb(255, 255, 255);"/>
    <path d="M1232 1328 l3 -753 75 -3 c41 -2 85 0 97 3 l23 5 0 750 0 750 -100 0 -100 0 2 -752z" style="fill: rgb(255, 255, 255);"/>
  </g>
</svg>